#!OML:ASF F:\VICON\USERDATA\INSTALL\rory3\rory3.ASF
:FULLY-SPECIFIED
:DEGREES
19
root -0.5724010000000002 16.8013 -26.6823 3.78547 -4.718790000000014 -6.260400000000005
lfemur -19.174399999999995 6.549179999999995 -9.258629999999988
ltibia 104.03299999999993
lfoot 27.941600000000044 -19.300100000000015
ltoes 11.508099999999983
rfemur -29.293400000000013 7.21102000000001 35.660199999999996
rtibia 54.9323
rfoot -21.732899999999958 -14.755500000000008
rtoes 2.22731
lowerback 1.0 -0.4198070000000014 3.592819999999997
upperback 0.2258159999999979 0.6313469999999997 3.9217999999999993
thorax -10.3035 0.2307419999999996 2.085000000000002
lowerneck -18.6705 -2.4134499999999974 -2.19654
upperneck 12.949599999999998 -2.8373800000000036 0.8694959999999985
head 7.06141 -1.3910499999999972 0.3169000000000002
lclavicle -4.4726599999999885e-15 4.373259999999998e-15
lhumerus -47.0476 -7.934630000000007 96.7914
lradius 95.07370000000002
lwrist 33.01059999999999
lhand -30.322199999999995 1.500720000000001
lfingers 7.12502
lthumb -3.6286499999999986 31.4496
rclavicle -4.4726599999999885e-15 4.373259999999998e-15
rhumerus -44.03769999999999 6.921119999999992 -93.3655
rradius 99.03480000000002
rwrist -9.745750000000001
rhand -21.246200000000005 1.0
rfingers 7.12502
rthumb 5.136679999999996 11.119999999999997
20
root -0.589471 16.8012 -26.171900000000033 4.01334 -4.376220000000008 -6.315930000000002
lfemur -22.767599999999995 6.935840000000002 -8.993409999999983
ltibia 105.55899999999993
lfoot 26.5676 -18.55049999999999
ltoes 10.996300000000025
rfemur -27.43610000000002 7.719550000000007 35.803000000000004
rtibia 55.15659999999999
rfoot -23.89060000000003 -15.335599999999992
rtoes 4.643509999999996
lowerback 1.0 -0.30048199999999947 3.5547000000000013
upperback 0.29041600000000234 0.7401159999999998 3.9954800000000033
thorax -9.84035 0.28938200000000025 2.146419999999998
lowerneck -18.298000000000002 -2.51523 -2.2206
upperneck 12.629499999999998 -2.9832200000000033 0.9160450000000022
head 6.89808 -1.4594499999999981 0.325229
lclavicle -2.4848100000000002e-15 -1.908329999999996e-14
lhumerus -47.9739 -7.923129999999993 97.1041
lradius 94.75160000000002
lwrist 32.425599999999996
lhand -30.444899999999997 0.15565199999999987
lfingers 7.12502
lthumb -3.74706 30.1025
rclavicle -2.4848100000000002e-15 -1.908329999999996e-14
rhumerus -42.481899999999996 7.5343300000000015 -93.52040000000001
rradius 99.78799999999997
rwrist -9.691019999999995
rhand -21.133 1.0
rfingers 7.12502
rthumb 5.245940000000004 10.989799999999999
21
root -0.7278227187687938 16.996640156401092 -14.936201259158747 4.046698382246852 -2.332336865351599 -5.617912070321763
lfemur -24.932700885199132 6.4716078253828515 -8.830434411036759
ltibia 106.12802979478042
lfoot 22.50630136919945 -17.59541746231426
ltoes 3.850278660023571
rfemur -25.477734734082567 7.057263297093478 35.923378434928665
rtibia 54.0130073101141
rfoot -25.84264673623041 -16.044516542772644
rtoes 5.645350215583212
lowerback 1.0 -0.47202782442277924 3.11807868657214
upperback -0.0439525563295079 0.49343543701851045 4.107222781342862
thorax -10.49971158899862 0.18808695840007728 2.4329712632299088
lowerneck -17.437739027179223 -2.650016347680021 -2.3324791932794984
upperneck 12.57845916985409 -3.0905007860158493 0.7961759281235858
head 6.744661999435569 -1.5240642840307812 0.3274557537313524
lclavicle 2.4017597848613675e-14 -2.5279172123882185e-14
lhumerus -49.691060106907486 -8.281274977978685 97.38754143800696
lradius 95.37201415344153
lwrist 30.98661191131828
lhand -31.386923893199768 -0.4571231342068799
lfingers nan
lthumb -4.672459371957705 29.46849244939534
rclavicle 2.42061989257402e-14 -2.5209916492539493e-14
rhumerus -42.86138380089596 7.904527037674472 -93.66867524298152
rradius 101.64488684179402
rwrist -12.85040035919709
rhand -21.080530765471256 1.0
rfingers nan
rthumb 5.295994402892035 11.592898297747002
22
root -0.7907624256169107 17.087592361773275 -17.209711404585477 4.189425172232013 -0.7974847471235846 -4.97466792018229
lfemur -27.10575028779076 6.259903421536565 -9.1570498411799
ltibia 106.16236050205632
lfoot 17.281259409584166 -16.53454332046509
ltoes -0.7737259644553678
rfemur -23.365513375058345 6.256299681450463 35.82971885700381
rtibia 52.207583637353274
rfoot -27.315160446394056 -16.7469783715488
rtoes 7.8237904805507394
lowerback 1.0 -0.5422271989222129 2.773107880005326
upperback -0.3348482233905578 0.32969881844848503 3.9954620636341627
thorax -10.853642678310152 0.12278988055310963 2.511669090875739
lowerneck -16.681318717621778 -2.9130410820823354 -2.3711306866456776
upperneck 12.251463479130988 -3.399784319942196 0.8695616831232553
head 6.510302280198784 -1.654462195949163 0.3401222119903806
lclavicle -1.3373343202575235e-14 -3.2980517768339797e-14
lhumerus -51.14440862969264 -8.998529540116376 97.70090924220393
lradius 96.26752835372221
lwrist 29.712795053948188
lhand -33.009178145813024 0.06959267141161027
lfingers nan
lthumb -6.247745281347521 29.964310194360976
rclavicle -1.3240851817445337e-14 -3.295016499703863e-14
rhumerus -43.19625570003567 8.135485885447883 -94.2351682745219
rradius 104.07393161012673
rwrist -20.941564627393138
rhand -21.02884029350532 1.0
rfingers nan
rthumb 5.350899763480793 11.310112976229203
23
root -0.815643957382612 17.160345177896065 -18.369661515303882 4.496085332460455 -0.07634467092475283 -4.452782419120782
lfemur -29.327904283738356 6.62451086666373 -9.56228632391774
ltibia 105.5401404641751
lfoot 14.403806662053691 -14.243195857288683
ltoes -3.6754739584722094
rfemur -21.120406548516833 6.040339730460694 35.706835654491655
rtibia 49.896339050182085
rfoot -28.015661571633242 -17.59321522962628
rtoes 13.120584424717977
lowerback 1.0 -0.4462672708880354 2.3972428296436794
upperback -0.5739665350220424 0.34341152734799263 3.84137571725969
thorax -10.489431896523426 0.1399242839426006 2.4905509925505767
lowerneck -15.452728899558938 -3.18887415004866 -2.4638965904436056
upperneck 11.892759327243157 -3.7524038718814925 0.9876172979934885
head 6.210185422852246 -1.8305467012188332 0.35061768043711156
lclavicle 1.3986689511161046e-14 -4.4118667354947156e-14
lhumerus -52.60300147956669 -9.619544837157473 97.99236703723278
lradius 97.27293462578606
lwrist 29.18811720810189
lhand -33.44245697478925 0.7794111555761872
lfingers nan
lthumb -6.66451373647924 30.672635239911834
rclavicle 1.4387871303838453e-14 -4.376222459419295e-14
rhumerus -43.71359613249659 8.689173670404543 -95.1248661744458
rradius 106.7554210925917
rwrist -28.95789316316857
rhand -21.729062041228662 1.0
rfingers nan
rthumb 4.672739346046597 9.482804610606188
24
root -0.8295110982843414 17.21378605212747 -18.89246635450923 4.7318617170299335 0.6779503271593423 -4.057162352317378
lfemur -31.718083848152034 6.6887412619790245 -10.018961866794148
ltibia 104.44736326448482
lfoot 14.224684038540552 -12.538178116257672
ltoes 5.958357742417631
rfemur -18.787640937612625 5.841040535282351 35.73960193288782
rtibia 47.17648644082703
rfoot -27.912052024001326 -18.23258729266091
rtoes -2.079956053482545
lowerback 1.0 -0.29528734998867257 2.2535912875658988
upperback -0.741311645275394 0.4815569819466189 3.5476172270116644
thorax -10.173587060360699 0.22333014813626795 2.2657610778827757
lowerneck -15.421637048391048 -3.6522311492348454 -2.395070791755345
upperneck 12.38725627805649 -4.37499911872668 1.0341939402810727
head 6.368982702148151 -2.112678649309005 0.26154701255367496
lclavicle 1.2105620839150889e-14 -3.47752998848474e-14
lhumerus -53.62612571324442 -10.724316116667014 98.27964757283057
lradius 98.31878943828767
lwrist 29.57091868923273
lhand -32.778848190823496 1.575463479264892
lfingers nan
lthumb -6.014458572365949 31.485559311361584
rclavicle 1.257627785368928e-14 -3.447689624312633e-14
rhumerus -43.854333079251546 8.713617096550719 -95.48935187981154
rradius 109.12956007387704
rwrist -32.18990688517195
rhand -22.281403429862156 1.0
rfingers nan
rthumb 4.13591162430977 7.834463947449871
25
root -0.8318023792385763 17.259057308233476 -19.111637952488607 4.7686740957141485 1.9038040707851005 -3.592014440265241
lfemur -33.66738302304022 6.134793327307966 -10.68990414792322
ltibia 103.06088117314656
lfoot 11.157597853777384 -11.945915437826626
ltoes 2.969602889431565
rfemur -16.476855233324763 5.351627312482858 35.76672218640465
rtibia 44.30666863712275
rfoot -27.239709005126823 -18.74074414771646
rtoes -3.456461429379917
lowerback 1.0 -0.1284773815855912 2.4721533457224223
upperback -0.4032903354448778 0.6804271681084353 2.999603036183766
thorax -9.227260270640128 0.31796069515396397 1.6877700485864109
lowerneck -18.634035767203095 -4.301391100775344 -2.0869520939146344
upperneck 13.62842560932696 -5.314150088629196 1.2466063403368057
head 7.268212949662488 -2.448371613140163 0.12236271806897758
lclavicle 6.930662668647073e-16 2.3736235476476756e-14
lhumerus -53.55392159472481 -12.637093985600185 98.43746929666572
lradius 99.22175779006398
lwrist 30.371605090613606
lhand -32.340455838000146 2.5827138206907705
lfingers nan
lthumb -5.591307641561439 32.48346730265129
rclavicle 1.3079769310328648e-15 2.3810345342408818e-14
rhumerus -43.23186269810504 8.145306959283717 -95.51493127723488
rradius 111.19302551248656
rwrist -33.725473802487926
rhand -22.881516629882764 1.0
rfingers nan
rthumb 3.5536979299639517 7.152919626780312
26
root -0.8273103720274987 17.314052091133654 -19.128984330000318 4.707440903688773 3.3059220878032303 -3.1406684855684768
lfemur -35.50424604900827 5.256272490010621 -11.50563889431069
ltibia 100.99351424927332
lfoot 7.163798248216411 -10.032881667810313
ltoes -2.277529659721788
rfemur -14.025913354049553 4.8001701844131075 35.88858589890289
rtibia 41.356138125285376
rfoot -25.880725335056837 -19.13124121176452
rtoes -8.521582995591807
lowerback 1.0 -0.34757885449412396 1.9429143816691832
upperback -1.5230473748116031 0.41253576372681033 3.2071849812660296
thorax -11.097792505829105 0.21498918727817118 2.165696681452865
lowerneck -13.157806819153521 -4.25272650290958 -2.7060608026712263
upperneck 12.431808658130333 -5.198914695171289 1.5175087981898963
head 6.048274380675135 -2.4247765814621345 0.4152643768746073
lclavicle -9.146809448795847e-15 1.4989484400372937e-15
lhumerus -55.809931559459535 -12.221758364881671 99.31813676572817
lradius 100.26078137051415
lwrist 30.417051749859926
lhand -31.78923415693556 2.4841326585033343
lfingers nan
lthumb -5.064228584877415 32.36099308748776
rclavicle -8.20947485139518e-15 1.7260552857736556e-15
rhumerus -44.58920016669953 9.121704400315382 -96.04426380496761
rradius 113.77501033978332
rwrist -34.899903508572166
rhand -24.286164131036152 1.0
rfingers nan
rthumb 2.1902496230765713 8.323383268138382
27
root -0.8214325732603197 17.363900939901626 -18.86155034052618 4.550184766011066 3.9101099197108287 -3.1250681942032834
lfemur -36.85963630325914 5.0031680689476286 -11.741897183264149
ltibia 98.33160112645011
lfoot 4.593446048391365 -8.32640625345309
ltoes -0.8077019797271401
rfemur -11.450674001588517 4.920586848043034 36.535058640913135
rtibia 38.55927550113556
rfoot -23.958947959484888 -18.809942622685572
rtoes -13.54419991131357
lowerback 1.0 -0.09439794052445005 2.7572683518259584
upperback -1.0569850478153646 0.7792453650281715 2.629148041068657
thorax -10.381281366314504 0.3966033179738319 1.362009856533112
lowerneck -17.69710800361204 -4.8130786555690825 -2.185208513045945
upperneck 13.585365446683817 -6.182830486343527 1.454760311300165
head 7.05899363993392 -2.7400657519252656 0.15494167544631587
lclavicle -1.4632011941125797e-14 -5.726732758508437e-15
lhumerus -55.39201182806923 -14.125094349585437 99.22085633028084
lradius 100.94084855695398
lwrist 30.65073616887963
lhand -31.344060383815698 1.407364568070045
lfingers nan
lthumb -4.6432660824066705 31.262722752950538
rclavicle -1.3858222127383715e-14 -5.6823111694121815e-15
rhumerus -43.95229036136006 8.65538927617001 -96.21118703158494
rradius 116.23053656757506
rwrist -34.17266453180311
rhand -25.01312464271545 1.0
rfingers nan
rthumb 1.4730607080191422 10.073828909966462
